<?xml version="1.0" encoding="UTF-8"?>
<svg xmlns="http://www.w3.org/2000/svg" xmlns:xlink="http://www.w3.org/1999/xlink"
     viewBox="0 0 256 256" width="256" height="256">
  <defs>
    <!-- 内圈长光芒：厚6，长34（圆角） -->
    <rect id="innerRay" x="125" y="39" width="6" height="34" rx="3"/>
    <!-- 外圈短光芒：厚6，长14（圆角） -->
    <rect id="outerRay" x="125" y="18" width="6" height="14" rx="3"/>
  </defs>

  <g fill="#9BE1F3">
    <!-- 外圈：36段，每10度一段 -->
    <g id="outerRays">
      <use href="#outerRay" xlink:href="#outerRay" transform="rotate(0 128 128)"/>
      <use href="#outerRay" xlink:href="#outerRay" transform="rotate(10 128 128)"/>
      <use href="#outerRay" xlink:href="#outerRay" transform="rotate(20 128 128)"/>
      <use href="#outerRay" xlink:href="#outerRay" transform="rotate(30 128 128)"/>
      <use href="#outerRay" xlink:href="#outerRay" transform="rotate(40 128 128)"/>
      <use href="#outerRay" xlink:href="#outerRay" transform="rotate(50 128 128)"/>
      <use href="#outerRay" xlink:href="#outerRay" transform="rotate(60 128 128)"/>
      <use href="#outerRay" xlink:href="#outerRay" transform="rotate(70 128 128)"/>
      <use href="#outerRay" xlink:href="#outerRay" transform="rotate(80 128 128)"/>
      <use href="#outerRay" xlink:href="#outerRay" transform="rotate(90 128 128)"/>
      <use href="#outerRay" xlink:href="#outerRay" transform="rotate(100 128 128)"/>
      <use href="#outerRay" xlink:href="#outerRay" transform="rotate(110 128 128)"/>
      <use href="#outerRay" xlink:href="#outerRay" transform="rotate(120 128 128)"/>
      <use href="#outerRay" xlink:href="#outerRay" transform="rotate(130 128 128)"/>
      <use href="#outerRay" xlink:href="#outerRay" transform="rotate(140 128 128)"/>
      <use href="#outerRay" xlink:href="#outerRay" transform="rotate(150 128 128)"/>
      <use href="#outerRay" xlink:href="#outerRay" transform="rotate(160 128 128)"/>
      <use href="#outerRay" xlink:href="#outerRay" transform="rotate(170 128 128)"/>
      <use href="#outerRay" xlink:href="#outerRay" transform="rotate(180 128 128)"/>
      <use href="#outerRay" xlink:href="#outerRay" transform="rotate(190 128 128)"/>
      <use href="#outerRay" xlink:href="#outerRay" transform="rotate(200 128 128)"/>
      <use href="#outerRay" xlink:href="#outerRay" transform="rotate(210 128 128)"/>
      <use href="#outerRay" xlink:href="#outerRay" transform="rotate(220 128 128)"/>
      <use href="#outerRay" xlink:href="#outerRay" transform="rotate(230 128 128)"/>
      <use href="#outerRay" xlink:href="#outerRay" transform="rotate(240 128 128)"/>
      <use href="#outerRay" xlink:href="#outerRay" transform="rotate(250 128 128)"/>
      <use href="#outerRay" xlink:href="#outerRay" transform="rotate(260 128 128)"/>
      <use href="#outerRay" xlink:href="#outerRay" transform="rotate(270 128 128)"/>
      <use href="#outerRay" xlink:href="#outerRay" transform="rotate(280 128 128)"/>
      <use href="#outerRay" xlink:href="#outerRay" transform="rotate(290 128 128)"/>
      <use href="#outerRay" xlink:href="#outerRay" transform="rotate(300 128 128)"/>
      <use href="#outerRay" xlink:href="#outerRay" transform="rotate(310 128 128)"/>
      <use href="#outerRay" xlink:href="#outerRay" transform="rotate(320 128 128)"/>
      <use href="#outerRay" xlink:href="#outerRay" transform="rotate(330 128 128)"/>
      <use href="#outerRay" xlink:href="#outerRay" transform="rotate(340 128 128)"/>
      <use href="#outerRay" xlink:href="#outerRay" transform="rotate(350 128 128)"/>
    </g>

    <!-- 内圈：36段，每10度一段 -->
    <g id="innerRays">
      <use href="#innerRay" xlink:href="#innerRay" transform="rotate(0 128 128)"/>
      <use href="#innerRay" xlink:href="#innerRay" transform="rotate(10 128 128)"/>
      <use href="#innerRay" xlink:href="#innerRay" transform="rotate(20 128 128)"/>
      <use href="#innerRay" xlink:href="#innerRay" transform="rotate(30 128 128)"/>
      <use href="#innerRay" xlink:href="#innerRay" transform="rotate(40 128 128)"/>
      <use href="#innerRay" xlink:href="#innerRay" transform="rotate(50 128 128)"/>
      <use href="#innerRay" xlink:href="#innerRay" transform="rotate(60 128 128)"/>
      <use href="#innerRay" xlink:href="#innerRay" transform="rotate(70 128 128)"/>
      <use href="#innerRay" xlink:href="#innerRay" transform="rotate(80 128 128)"/>
      <use href="#innerRay" xlink:href="#innerRay" transform="rotate(90 128 128)"/>
      <use href="#innerRay" xlink:href="#innerRay" transform="rotate(100 128 128)"/>
      <use href="#innerRay" xlink:href="#innerRay" transform="rotate(110 128 128)"/>
      <use href="#innerRay" xlink:href="#innerRay" transform="rotate(120 128 128)"/>
      <use href="#innerRay" xlink:href="#innerRay" transform="rotate(130 128 128)"/>
      <use href="#innerRay" xlink:href="#innerRay" transform="rotate(140 128 128)"/>
      <use href="#innerRay" xlink:href="#innerRay" transform="rotate(150 128 128)"/>
      <use href="#innerRay" xlink:href="#innerRay" transform="rotate(160 128 128)"/>
      <use href="#innerRay" xlink:href="#innerRay" transform="rotate(170 128 128)"/>
      <use href="#innerRay" xlink:href="#innerRay" transform="rotate(180 128 128)"/>
      <use href="#innerRay" xlink:href="#innerRay" transform="rotate(190 128 128)"/>
      <use href="#innerRay" xlink:href="#innerRay" transform="rotate(200 128 128)"/>
      <use href="#innerRay" xlink:href="#innerRay" transform="rotate(210 128 128)"/>
      <use href="#innerRay" xlink:href="#innerRay" transform="rotate(220 128 128)"/>
      <use href="#innerRay" xlink:href="#innerRay" transform="rotate(230 128 128)"/>
      <use href="#innerRay" xlink:href="#innerRay" transform="rotate(240 128 128)"/>
      <use href="#innerRay" xlink:href="#innerRay" transform="rotate(250 128 128)"/>
      <use href="#innerRay" xlink:href="#innerRay" transform="rotate(260 128 128)"/>
      <use href="#innerRay" xlink:href="#innerRay" transform="rotate(270 128 128)"/>
      <use href="#innerRay" xlink:href="#innerRay" transform="rotate(280 128 128)"/>
      <use href="#innerRay" xlink:href="#innerRay" transform="rotate(290 128 128)"/>
      <use href="#innerRay" xlink:href="#innerRay" transform="rotate(300 128 128)"/>
      <use href="#innerRay" xlink:href="#innerRay" transform="rotate(310 128 128)"/>
      <use href="#innerRay" xlink:href="#innerRay" transform="rotate(320 128 128)"/>
      <use href="#innerRay" xlink:href="#innerRay" transform="rotate(330 128 128)"/>
      <use href="#innerRay" xlink:href="#innerRay" transform="rotate(340 128 128)"/>
      <use href="#innerRay" xlink:href="#innerRay" transform="rotate(350 128 128)"/>
    </g>
  </g>

  <!-- 中央"T"：用圆头圆角描边，更近原图 -->
  <path d="M111.5 104 H144.5 M128 104 V152"
        fill="none" stroke="#4AA3C0" stroke-width="10"
        stroke-linecap="round" stroke-linejoin="round"/>
</svg>
